<svg xmlns="http://www.w3.org/2000/svg" width="760" height="340" viewBox="0 0 760 340" role="img">
<text x="56.0" y="24.0" font-family="system-ui, -apple-system, Segoe UI, sans-serif" font-size="15" fill="#ffffff" text-anchor="start" font-weight="bold">Every closure day costs ρ ÷ (1 − ρ) queue days</text>
<text x="56.0" y="44.0" font-family="system-ui, -apple-system, Segoe UI, sans-serif" font-size="11" fill="#898781" text-anchor="start" font-weight="normal">Days to clear per closed day against utilisation ρ = arrivals ÷ capacity. Line: closed form. Dots: SimPy, random arrivals.</text>
<line x1="56.0" y1="276.0" x2="736.0" y2="276.0" stroke="#2c2c2a" stroke-width="1.0"/>
<text x="48.0" y="280.0" font-family="system-ui, -apple-system, Segoe UI, sans-serif" font-size="10" fill="#898781" text-anchor="end" font-weight="normal">0</text>
<line x1="56.0" y1="221.0" x2="736.0" y2="221.0" stroke="#2c2c2a" stroke-width="1.0"/>
<text x="48.0" y="225.0" font-family="system-ui, -apple-system, Segoe UI, sans-serif" font-size="10" fill="#898781" text-anchor="end" font-weight="normal">5</text>
<line x1="56.0" y1="166.0" x2="736.0" y2="166.0" stroke="#2c2c2a" stroke-width="1.0"/>
<text x="48.0" y="170.0" font-family="system-ui, -apple-system, Segoe UI, sans-serif" font-size="10" fill="#898781" text-anchor="end" font-weight="normal">10</text>
<line x1="56.0" y1="111.0" x2="736.0" y2="111.0" stroke="#2c2c2a" stroke-width="1.0"/>
<text x="48.0" y="115.0" font-family="system-ui, -apple-system, Segoe UI, sans-serif" font-size="10" fill="#898781" text-anchor="end" font-weight="normal">15</text>
<line x1="56.0" y1="56.0" x2="736.0" y2="56.0" stroke="#2c2c2a" stroke-width="1.0"/>
<text x="48.0" y="60.0" font-family="system-ui, -apple-system, Segoe UI, sans-serif" font-size="10" fill="#898781" text-anchor="end" font-weight="normal">20</text>
<text x="56.0" y="292.0" font-family="system-ui, -apple-system, Segoe UI, sans-serif" font-size="10" fill="#898781" text-anchor="middle" font-weight="normal">50%</text>
<text x="207.1" y="292.0" font-family="system-ui, -apple-system, Segoe UI, sans-serif" font-size="10" fill="#898781" text-anchor="middle" font-weight="normal">60%</text>
<text x="358.2" y="292.0" font-family="system-ui, -apple-system, Segoe UI, sans-serif" font-size="10" fill="#898781" text-anchor="middle" font-weight="normal">70%</text>
<text x="509.3" y="292.0" font-family="system-ui, -apple-system, Segoe UI, sans-serif" font-size="10" fill="#898781" text-anchor="middle" font-weight="normal">80%</text>
<text x="660.4" y="292.0" font-family="system-ui, -apple-system, Segoe UI, sans-serif" font-size="10" fill="#898781" text-anchor="middle" font-weight="normal">90%</text>
<text x="736.0" y="308.0" font-family="system-ui, -apple-system, Segoe UI, sans-serif" font-size="10" fill="#898781" text-anchor="end" font-weight="normal">utilisation before the storm</text>
<path d="M 56.0 265.0 L 63.6 264.8 L 71.1 264.6 L 78.7 264.3 L 86.2 264.1 L 93.8 263.8 L 101.3 263.6 L 108.9 263.3 L 116.4 263.1 L 124.0 262.8 L 131.6 262.6 L 139.1 262.3 L 146.7 262.0 L 154.2 261.7 L 161.8 261.4 L 169.3 261.1 L 176.9 260.8 L 184.4 260.5 L 192.0 260.2 L 199.6 259.8 L 207.1 259.5 L 214.7 259.2 L 222.2 258.8 L 229.8 258.4 L 237.3 258.1 L 244.9 257.7 L 252.4 257.3 L 260.0 256.9 L 267.6 256.4 L 275.1 256.0 L 282.7 255.6 L 290.2 255.1 L 297.8 254.6 L 305.3 254.2 L 312.9 253.7 L 320.4 253.2 L 328.0 252.6 L 335.6 252.1 L 343.1 251.5 L 350.7 250.9 L 358.2 250.3 L 365.8 249.7 L 373.3 249.1 L 380.9 248.4 L 388.4 247.7 L 396.0 247.0 L 403.6 246.3 L 411.1 245.5 L 418.7 244.7 L 426.2 243.9 L 433.8 243.0 L 441.3 242.1 L 448.9 241.2 L 456.4 240.2 L 464.0 239.2 L 471.6 238.1 L 479.1 237.0 L 486.7 235.8 L 494.2 234.6 L 501.8 233.3 L 509.3 232.0 L 516.9 230.6 L 524.4 229.1 L 532.0 227.5 L 539.6 225.9 L 547.1 224.1 L 554.7 222.3 L 562.2 220.3 L 569.8 218.2 L 577.3 216.0 L 584.9 213.7 L 592.4 211.1 L 600.0 208.4 L 607.6 205.5 L 615.1 202.4 L 622.7 199.0 L 630.2 195.3 L 637.8 191.3 L 645.3 187.0 L 652.9 182.2 L 660.4 177.0 L 668.0 171.2 L 675.6 164.8 L 683.1 157.6 L 690.7 149.5 L 698.2 140.3 L 705.8 129.9 L 713.3 117.8 L 720.9 103.7 L 728.4 87.0 L 736.0 67.0" fill="none" stroke="#3987e5" stroke-width="2.2" stroke-linejoin="round"/>
<circle cx="207.1" cy="262.4" r="5" fill="#d95926"/>
<circle cx="358.2" cy="253.2" r="5" fill="#d95926"/>
<circle cx="509.3" cy="234.9" r="5" fill="#d95926"/>
<circle cx="584.9" cy="216.1" r="5" fill="#d95926"/>
<circle cx="660.4" cy="185.9" r="5" fill="#d95926"/>
<circle cx="705.8" cy="143.7" r="5" fill="#d95926"/>
<line x1="603.8" y1="56.0" x2="603.8" y2="276.0" stroke="#d95926" stroke-width="1.2" stroke-dasharray="4 3"/>
<text x="597.8" y="266.0" font-family="system-ui, -apple-system, Segoe UI, sans-serif" font-size="11" fill="#d95926" text-anchor="end" font-weight="bold">Shanghai before Hinnamnor: 86% → ×6.3</text>
<text x="62.0" y="70.0" font-family="system-ui, -apple-system, Segoe UI, sans-serif" font-size="11" fill="#3987e5" text-anchor="start" font-weight="normal">A closed day costs 1.5 queue days at 60% utilisation, 4 at 80%, 9 at 90%.</text>
</svg>
